<svg width="65" height="62" viewBox="0 0 65 62" fill="none" xmlns="http://www.w3.org/2000/svg">
<path opacity="0.5" d="M64.067 1.2928L48.388 56.8364C48.3082 57.0885 47.9893 57.1642 47.8033 56.9877L37.3064 47.0287L45.1724 19.1938C45.2522 18.9417 45.013 18.7148 44.7472 18.7904L15.4089 26.2534L4.96507 16.3448C4.77905 16.1683 4.85878 15.8657 5.12452 15.7901L63.6418 0.889402C63.9075 0.838976 64.1467 1.06589 64.067 1.2928Z" fill="#00B37E"/>
<path opacity="0.5" d="M37.3058 47.0282L33.2665 61.3994C33.1868 61.6516 32.8679 61.7272 32.6818 61.5507L0.101381 30.6651C-0.0846408 30.4886 -0.00491742 30.1861 0.260829 30.1104L15.4084 26.2529L37.3058 47.0282Z" fill="#00B37E"/>
<path d="M45.1711 19.1933L37.305 47.0282L15.4076 26.2529L44.7459 18.7899C45.0117 18.7143 45.2508 18.9412 45.1711 19.1933Z" fill="#00B37E"/>
<g clip-path="url(#clip0_1_22)">
<path opacity="0.5" d="M64.067 1.29281L48.388 56.8364C48.3082 57.0885 47.9893 57.1642 47.8033 56.9877L37.3064 47.0287L45.1724 19.1938C45.2522 18.9417 45.013 18.7148 44.7472 18.7904L15.4089 26.2534L4.96507 16.3448C4.77905 16.1683 4.85878 15.8657 5.12452 15.7901L63.6418 0.889402C63.9075 0.838976 64.1467 1.06589 64.067 1.29281Z" fill="#00B37E"/>
<path opacity="0.5" d="M37.3058 47.0282L33.2665 61.3994C33.1868 61.6516 32.8679 61.7272 32.6818 61.5507L0.101381 30.6651C-0.0846407 30.4886 -0.00491732 30.1861 0.260829 30.1105L15.4084 26.2529L37.3058 47.0282Z" fill="#00B37E"/>
<path d="M45.1711 19.1933L37.305 47.0282L15.4076 26.2529L44.7459 18.7899C45.0117 18.7143 45.2508 18.9412 45.1711 19.1933Z" fill="#00B37E"/>
</g>
<defs>
<clipPath id="clip0_1_22">
<rect width="65" height="61" fill="white" transform="translate(0 0.882301)"/>
</clipPath>
</defs>
</svg>
